@startuml

    package Findings {
        class WmsiRest01 <<Observation>> [[./Observation-RestWmsi01.html]]
        class WmsiRest02 <<Observation>> [[./Observation-RestWmsi02.html]]
        class WmsiStress01 <<Observation>> [[./Observation-StressWmsi01.html]]
        class WmsiStress02 <<Observation>> [[./Observation-StressWmsi02.html]]
    }
    package KeyImages {
{% if isR4 %}
        class StructuredKeyImageRestR4 <<Media>> [[./Media-StructuredKeyImageRestR4.html]]
        class StructuredKeyImageStressR4 <<Media>> [[./Media-StructuredKeyImageStressR4.html]]
{% else %}
        class StructuredKeyImageRest <<DocumentReference>> [[./DocumentReference-StructuredKeyImageRest.html]]
        class StructuredKeyImageStress <<DocumentReference>> [[./DocumentReference-StructuredKeyImageStress.html]]
{% endif %}
    }
 
    WmsiRest01 --> Patient: subject
    WmsiRest01 --> WMSIImage: derivedFrom
    WmsiStress01 --> Patient: subject
    WmsiStress01 --> WMSIImage: derivedFrom
    WmsiRest02 --> Patient: subject
    WmsiRest02 --> WMSIImage: derivedFrom
    WmsiStress02 --> Patient: subject
    WmsiStress02 --> WMSIImage: derivedFrom

{% if isR4 %}
    class WMSIImage <<Media>>
{% else %}
    class WMSIImage <<DocumentReference>>
{% endif %}

    DiagnosticReport --> Composition: composition
    DiagnosticReport --> WmsiRest01: result
    DiagnosticReport --> WmsiRest02: result
    DiagnosticReport --> WmsiStress01: result
    DiagnosticReport --> WmsiStress02: result

    Composition --> DiagnosticReport: extension[diagnosticreport-reference]
    Composition --> WmsiRest01: section[finding].entry
    Composition --> WmsiRest02: section[finding].entry
    Composition --> WmsiStress01: section[finding].entry
    Composition --> WmsiStress02: section[finding].entry
{% if isR4 %}
    Composition --> StructuredKeyImageStressR4: section[finding].entry
    Composition --> StructuredKeyImageRestR4: section[finding].entry
{% else %}
    Composition --> StructuredKeyImageStress: section[finding].entry
    Composition --> StructuredKeyImageRest: section[finding].entry
{% endif %}

    class Patient{
        * name 
          * family = "Gutefrage"
          * given[+] = Test-Schust
    }

    class Composition [[./Composition-CompositionStructured.html]] {
        section[findings]
        -- note: "..."
        -- note: "..."
        -- note: "..."
        -- note: "..."
        -- entry: WMSI observations
    {% if isR4 %}
        -- entry: StructuredKeyimageRestR4
        -- entry: StructuredKeyImageStressR4
    {% else %}
        -- entry: StructuredKeyimageRest
        -- entry: StructuredKeyImageStress
    {% endif %}
    }

    class DiagnosticReport [[./DiagnosticReport-DiagnosticReportStructured.html]] {
        note[finding] = "..."
        note[finding] = "..."
        note[finding] = "..."
        note[finding] = "..."
    {% if isR4 %}
        extension[finding]: StructuredKeyimageRestR4
        extension[finding]: StructuredKeyImageStressR4
    {% else %}
        extension[finding]: StructuredKeyimageRest
        extension[finding]: StructuredKeyImageStress
    {% endif %}
        result: WMSI observations
    }

    
@enduml